<svg width="34" height="34" viewBox="0 0 34 34" fill="none" xmlns="http://www.w3.org/2000/svg">
<path d="M27.8428 29.2349V26.4506C27.8428 24.9737 27.2561 23.5574 26.2118 22.5131C25.1675 21.4687 23.7511 20.8821 22.2743 20.8821H20.8821C20.5129 20.8821 20.1588 20.7354 19.8977 20.4743C19.6367 20.2132 19.49 19.8591 19.49 19.4899V12.5292C19.49 11.7908 19.1966 11.0826 18.6745 10.5604C18.1523 10.0383 17.4442 9.74495 16.7057 9.74495C15.9673 9.74495 15.2591 10.0383 14.7369 10.5604C14.2148 11.0826 13.9214 11.7908 13.9214 12.5292V25.0585L10.5803 20.6036C10.321 20.2578 9.98466 19.9772 9.59805 19.7839C9.21144 19.5906 8.78513 19.4899 8.35288 19.4899H7.74869C6.54449 19.4899 5.5686 20.4658 5.5686 21.67C5.5686 22.0654 5.6758 22.4538 5.87905 22.7921L9.74502 29.2349M16.7057 5.56853V4.17639V5.56853ZM25.0585 13.9214H26.4507H25.0585ZM6.96074 13.9214H8.35288H6.96074ZM10.2225 7.43817L9.23828 6.45393L10.2225 7.43817ZM23.1889 7.43817L24.1731 6.45393L23.1889 7.43817Z" fill="#4CAF4F"/>
<path d="M27.8428 29.2349V26.4506C27.8428 24.9737 27.2561 23.5574 26.2118 22.5131C25.1675 21.4687 23.7511 20.8821 22.2743 20.8821H20.8821C20.5129 20.8821 20.1588 20.7354 19.8977 20.4743C19.6367 20.2132 19.49 19.8591 19.49 19.4899V12.5292C19.49 11.7908 19.1966 11.0826 18.6745 10.5604C18.1523 10.0383 17.4442 9.74495 16.7057 9.74495V9.74495C15.9673 9.74495 15.2591 10.0383 14.7369 10.5604C14.2148 11.0826 13.9214 11.7908 13.9214 12.5292V25.0585L10.5803 20.6036C10.321 20.2578 9.98466 19.9772 9.59805 19.7839C9.21144 19.5906 8.78513 19.4899 8.35288 19.4899H7.74869C6.54449 19.4899 5.5686 20.4658 5.5686 21.67C5.5686 22.0654 5.6758 22.4538 5.87905 22.7921L9.74502 29.2349M16.7057 5.56853V4.17639M25.0585 13.9214H26.4507M6.96074 13.9214H8.35288M10.2225 7.43817L9.23828 6.45393M23.1889 7.43817L24.1731 6.45393" stroke="#4CAF4F" stroke-width="1.39214" stroke-linecap="round" stroke-linejoin="round"/>
</svg>
