<svg width="34" height="34" viewBox="0 0 34 34" fill="none" xmlns="http://www.w3.org/2000/svg">
<path d="M6.78638 5.56824H26.6243C27.7779 5.56824 28.8846 6.02696 29.7004 6.84265C30.5163 7.65846 30.9748 8.7651 30.9749 9.91882V23.4921C30.9749 24.6459 30.5163 25.7524 29.7004 26.5682C28.8846 27.3841 27.7781 27.8427 26.6243 27.8427H6.78638C5.63265 27.8426 4.52602 27.384 3.71021 26.5682C2.89452 25.7524 2.43579 24.6457 2.43579 23.4921V9.91882C2.43585 8.7651 2.89439 7.65846 3.71021 6.84265C4.52602 6.02684 5.63265 5.5683 6.78638 5.56824ZM3.82837 23.4921C3.82837 24.2765 4.13997 25.0291 4.69458 25.5839C5.24931 26.1386 6.00187 26.451 6.78638 26.451H26.6243C27.4089 26.451 28.1613 26.1386 28.7161 25.5839C29.2708 25.0291 29.5833 24.2766 29.5833 23.4921V13.2255H3.82837V23.4921ZM21.926 20.1864H25.0588C25.2433 20.1865 25.4206 20.2591 25.551 20.3895C25.6815 20.52 25.754 20.6973 25.7542 20.8817C25.7542 21.0661 25.6813 21.2434 25.551 21.3739C25.4206 21.5043 25.2433 21.5779 25.0588 21.578H21.926C21.7414 21.578 21.5644 21.5044 21.4338 21.3739C21.3035 21.2434 21.2297 21.0662 21.2297 20.8817C21.2299 20.6973 21.3034 20.52 21.4338 20.3895C21.5643 20.2591 21.7415 20.1864 21.926 20.1864ZM6.78638 6.96082C6.00187 6.96088 5.24931 7.27229 4.69458 7.82703C4.13985 8.38176 3.82843 9.13432 3.82837 9.91882V11.8329H29.5833V9.91882C29.5832 9.13432 29.2708 8.38176 28.7161 7.82703C28.1613 7.27241 27.4087 6.96082 26.6243 6.96082H6.78638Z" fill="#4CAF4F" stroke="#4CAF4F" stroke-width="0.696069"/>
</svg>
